<svg xmlns="http://www.w3.org/2000/svg" viewBox="0 0 676.89 218.65"><defs><style>.cls-1{fill:#fc5a00;}.cls-2{fill:#000d44;}</style></defs><g id="Layer_2" data-name="Layer 2"><g id="Layer_1-2" data-name="Layer 1"><polygon class="cls-1" points="0 204.5 417.62 204.5 463.57 17.39 0 17.39 0 204.5"/><polygon class="cls-2" points="514.22 122.43 497.45 204.75 451.16 204.75 498.52 11.91 561.19 120.41 617.8 0 676.88 204.75 628.83 204.75 606.52 117.05 561.19 218.65 514.22 122.43"/><path class="cls-2" d="M102.72,76.21l-2,13,9.35-.75c23.21-1.81,40.24,17.18,40.24,40.69a39.59,39.59,0,0,1-14.62,30.75c-9,7.24-21.85,9.5-33.16,9.5-13,0-26.07-3.17-37.08-10.25l4.37-27.89c8.74,7.84,19.9,13.12,31.66,13.12,9.34,0,18.08-6.79,18.08-16.73,0-13.72-13.11-19.45-24.87-19.45A51.19,51.19,0,0,0,73,112.83L83,51.19h59.08v25Z"/><path class="cls-2" d="M260.67,108c0,29.54-14.32,61.35-48.23,61.35S164.21,137.55,164.21,108s14.47-61.34,48.23-61.34S260.67,78.47,260.67,108Zm-67.07-.15c0,11,3.62,35.42,18.84,35.42s18.84-24.42,18.84-35.42-3.62-35.12-18.84-35.12S193.6,96.86,193.6,107.86Z"/><path class="cls-2" d="M339.34,51.19H376L330.75,105,380,164.84H341.75l-38.13-49.29h-.3v49.29H273.77V51.19h29.55V98.06h.3Z"/></g></g></svg>